<?xml version="1.0" encoding="utf-8"?>
<!-- Generator: Adobe Illustrator 27.5.0, SVG Export Plug-In . SVG Version: 6.00 Build 0)  -->
<svg version="1.1" id="shapes" xmlns="http://www.w3.org/2000/svg" xmlns:xlink="http://www.w3.org/1999/xlink" x="0px" y="0px"
	 viewBox="0 0 3583.741 2002.949" style="enable-background:new 0 0 3583.741 2002.949;" xml:space="preserve">
<rect y="-0.21" style="fill:#FFFFFF;" width="3583.741" height="1995.822"/>
<path style="fill:#1A1A1A;" d="M1034.166,752.554h-0.484c-65.229,0-118.107-52.878-118.107-118.107v-0.967
	c0-65.228,52.878-118.107,118.107-118.107h0.484V752.554z"/>
<path style="fill:#1A1A1A;" d="M915.576,752.554h-0.483c-65.228,0-118.107-52.878-118.107-118.107v-0.967
	c0-65.228,52.878-118.107,118.107-118.107h0.483V752.554z"/>
<g>
	<path style="fill:#1A1A1A;" d="M568.662,268.173h0.469v0c0-65.423-53.036-118.46-118.46-118.46h-0.469v0
		C450.202,215.137,503.238,268.173,568.662,268.173z"/>
	<path style="fill:#1A1A1A;" d="M569.714,268.173h-0.469v0c0-65.423,53.036-118.46,118.46-118.46h0.469v0
		C688.174,215.137,635.138,268.173,569.714,268.173z"/>
	<path style="fill:#1A1A1A;" d="M568.77,267.651h0.469v0c0,65.424-53.036,118.46-118.46,118.46h-0.469v0
		C450.31,320.687,503.347,267.651,568.77,267.651z"/>
	<path style="fill:#1A1A1A;" d="M569.822,267.651h-0.469v0c0,65.424,53.036,118.46,118.46,118.46h0.469v0
		C688.282,320.687,635.246,267.651,569.822,267.651z"/>
</g>
<path style="fill:#1A1A1A;" d="M1145.208,149.213V386.61h237.397V149.213H1145.208z M1263.906,386.502
	c-65.496,0-118.59-53.094-118.59-118.59c0-65.495,53.095-118.59,118.59-118.59c65.495,0,118.59,53.095,118.59,118.59
	C1382.496,333.407,1329.402,386.502,1263.906,386.502z"/>
<path style="fill:#1A1A1A;" d="M893.756,1115.116h-96.51v-4.322c0-128.783,104.399-233.183,233.183-233.183h4.214v96.619
	C956.833,974.23,893.756,1037.307,893.756,1115.116z"/>
<g>
	<path style="fill:#1A1A1A;" d="M222.92,1115.062h118.391V996.721C341.311,1062.079,288.306,1115.062,222.92,1115.062z"/>
	<ellipse style="fill:#1A1A1A;" cx="222.92" cy="996.721" rx="46.62" ry="46.601"/>
	<path style="fill:#1A1A1A;" d="M103.914,877.666v237.397H222.92c-65.385,0-118.391-52.983-118.391-118.341
		c0-65.358,53.006-118.341,118.391-118.341s118.391,52.983,118.391,118.341V877.666H103.914z"/>
</g>
<g>
	<path style="fill:#1A1A1A;" d="M222.821,148.849v119.062c-46.13-46.803-71.993-73.044-118.122-119.847h0l0,119.847l118.122,0v0l0,0
		c46.433-46.497,72.467-72.566,118.9-119.062v0H222.821z"/>
	<path style="fill:#1A1A1A;" d="M222.843,267.912L222.843,267.912L222.843,267.912c-46.434,46.497-72.467,72.565-118.9,119.062v0
		h118.9V267.912c46.13,46.803,71.993,73.044,118.122,119.847h0l0-119.847L222.843,267.912z"/>
</g>
<g>
	<path style="fill:#1A1A1A;" d="M1329.038,513.081c0,37.21-29.578,67.372-66.062,67.372c-36.481,0-66.058-30.162-66.058-67.372
		h-52.53c0,66.796,53.095,120.947,118.589,120.947c65.498,0,118.593-54.151,118.593-120.947H1329.038z"/>
	<path style="fill:#1A1A1A;" d="M1329.721,752.526c0-36.692-29.578-66.435-66.062-66.435c-36.481,0-66.058,29.742-66.058,66.435
		h-52.531c0-65.867,53.095-119.264,118.589-119.264c65.498,0,118.593,53.397,118.593,119.264H1329.721z"/>
</g>
<g>
	<path style="fill:#1A1A1A;" d="M222.114,1478.967h119.089v-0.488c0-65.827-52.871-119.191-118.091-119.191l-119.089,0v0.488
		C104.023,1425.603,156.894,1478.967,222.114,1478.967z"/>
	<path style="fill:#1A1A1A;" d="M222.114,1359.288h119.089v-0.488c0-65.827-52.871-119.191-118.091-119.191H104.023v0.488
		C104.023,1305.924,156.894,1359.288,222.114,1359.288z"/>
</g>
<path style="fill:#1A1A1A;" d="M2427.39,1240.698L2427.39,1240.698l-118.855,0H2189.68v118.59v118.59l0,0
	c46.416-46.312,72.439-72.278,118.855-118.59v118.59h0c46.416-46.312,72.439-72.278,118.855-118.59v0h-118.855
	C2354.951,1312.975,2380.974,1287.01,2427.39,1240.698z M2189.68,1359.288c46.416-46.312,72.439-72.278,118.855-118.59v118.59
	H2189.68z"/>
<g>
	<path style="fill:#1A1A1A;" d="M2331.229,194.519L2331.229,194.519c40.533,0,73.392,32.859,73.392,73.392v0
		c0,40.534-32.859,73.392-73.392,73.392l0,0V194.519z"/>
	<path style="fill:#1A1A1A;" d="M2331.478,194.519L2331.478,194.519v-45.197l0,0c-65.496,0-118.59,53.094-118.59,118.59v0
		c0,65.495,53.094,118.59,118.59,118.59l0,0v-45.197l0,0c-40.534,0-73.393-32.859-73.393-73.392v0
		C2258.085,227.378,2290.944,194.519,2331.478,194.519z"/>
</g>
<path style="fill:#1A1A1A;" d="M1944.223,633.992c-26.002,3.721-49.29,15.911-67.006,33.744
	c-21.463,21.578-34.733,51.428-34.733,84.386h237.137c0-60.163-44.228-109.901-101.739-118.13
	c26.002-3.721,49.29-15.911,67.006-33.743c21.463-21.578,34.733-51.428,34.733-84.386h-237.137
	C1842.484,576.026,1886.712,625.764,1944.223,633.992z"/>
<g>
	<path style="fill:#1A1A1A;" d="M2349.88,592.221c-10.671-10.822-25.454-17.524-41.792-17.524
		c-32.536,0-58.911,26.573-58.911,59.353c0,16.32,6.539,31.1,17.119,41.83C2294.903,647.249,2321.274,620.854,2349.88,592.221z"/>
	<path style="fill:#1A1A1A;" d="M2426.757,752.691V515.294h0c-28.7,28.726-53.491,53.54-76.799,76.869
		c10.581,10.73,17.12,25.51,17.12,41.83c0,32.78-26.376,59.353-58.911,59.353c-16.337,0-31.12-6.702-41.792-17.524
		c-23.307,23.329-48.098,48.142-76.798,76.869v0H2426.757z"/>
</g>
<g>
	<polygon style="fill:#1A1A1A;" points="1961.42,996.321 2080.357,1115.02 1842.483,1115.02 	"/>
	<polygon style="fill:#1A1A1A;" points="1961.42,996.407 2080.357,877.708 1842.483,877.708 	"/>
</g>
<g>
	<polygon style="fill:#1A1A1A;" points="1554.205,1240.436 1494.775,1478.14 1613.636,1478.14 	"/>
	<polygon style="fill:#1A1A1A;" points="1672.14,1240.436 1612.709,1478.14 1731.571,1478.14 	"/>
</g>
<g>
	<polygon style="fill:#1A1A1A;" points="3390.629,1389.892 3390.865,1389.751 3390.77,1389.656 3478.854,1242.843 
		3332.041,1330.927 3331.947,1330.833 3331.805,1331.069 3331.569,1331.21 3331.663,1331.305 3243.579,1478.119 3390.393,1390.034 
		3390.487,1390.129 	"/>
	<polygon style="fill:#1A1A1A;" points="3331.805,1389.893 3331.947,1390.129 3332.041,1390.034 3478.854,1478.119 
		3390.77,1331.305 3390.865,1331.21 3390.629,1331.069 3390.487,1330.833 3390.393,1330.927 3243.579,1242.843 3331.663,1389.657 
		3331.569,1389.751 	"/>
</g>
<path style="fill:#1A1A1A;" d="M2384.226,996.364c38.58-57.7,42.048-110.693,42.448-118.959
	c-8.208,0.402-60.837,3.894-118.139,42.742c-57.302-38.848-109.93-42.34-118.138-42.742c0.399,8.266,3.867,61.259,42.448,118.959
	c-38.58,57.7-42.048,110.693-42.448,118.959c8.208-0.402,60.837-3.894,118.138-42.743c57.302,38.848,109.93,42.34,118.139,42.743
	C2426.274,1107.057,2422.806,1054.064,2384.226,996.364z"/>
<g>
	<path style="fill:#1A1A1A;" d="M568.627,515.266h-118.67v118.67C527.975,611.502,546.192,593.284,568.627,515.266z"/>
	<path style="fill:#1A1A1A;" d="M687.353,633.936v-118.67h-118.67C591.117,593.284,609.335,611.502,687.353,633.936z"/>
	<path style="fill:#1A1A1A;" d="M568.683,752.663h118.67v-118.67C609.335,656.427,591.117,674.644,568.683,752.663z"/>
	<path style="fill:#1A1A1A;" d="M449.956,633.992v118.67h118.67C546.192,674.644,527.975,656.427,449.956,633.992z"/>
</g>
<path style="fill:#1A1A1A;" d="M990.147,223.462h-29.373v-29.265c0-24.549-19.973-44.449-44.611-44.449h0
	c-24.638,0-44.611,19.9-44.611,44.449v29.265h-29.373c-24.639,0-44.612,19.901-44.612,44.449l0,0
	c0,24.549,19.973,44.449,44.612,44.449h29.373v29.266c0,24.548,19.973,44.449,44.611,44.449h0c24.638,0,44.611-19.901,44.611-44.449
	v-29.266h29.373c24.639,0,44.612-19.9,44.612-44.449l0,0C1034.759,243.363,1014.786,223.462,990.147,223.462z"/>
<g>
	<path style="fill:#1A1A1A;" d="M3002.926,1669.193c-35.206,13.425-46.089,24.309-59.515,59.514
		c-13.425-35.206-24.309-46.089-59.514-59.514c35.206-13.425,46.089-24.309,59.514-59.515
		C2956.837,1644.884,2967.72,1655.767,3002.926,1669.193z"/>
	<path style="fill:#1A1A1A;" d="M3121.955,1669.193c-35.206,13.425-46.089,24.309-59.514,59.514
		c-13.425-35.206-24.309-46.089-59.514-59.514c35.206-13.425,46.089-24.309,59.514-59.515
		C3075.865,1644.884,3086.749,1655.767,3121.955,1669.193z"/>
	<path style="fill:#1A1A1A;" d="M3002.926,1788.221c-35.206,13.425-46.089,24.309-59.515,59.514
		c-13.425-35.206-24.309-46.089-59.514-59.514c35.206-13.425,46.089-24.309,59.514-59.515
		C2956.837,1763.913,2967.72,1774.796,3002.926,1788.221z"/>
	<path style="fill:#1A1A1A;" d="M3121.955,1788.221c-35.206,13.425-46.089,24.309-59.514,59.514
		c-13.425-35.206-24.309-46.089-59.514-59.514c35.206-13.425,46.089-24.309,59.514-59.515
		C3075.865,1763.913,3086.749,1774.796,3121.955,1788.221z"/>
</g>
<polygon style="fill:#1A1A1A;" points="294.898,633.992 340.589,588.015 268.222,588.015 268.222,515.649 222.245,545.767 
	176.268,515.649 176.268,588.015 103.902,588.015 134.02,633.992 103.902,679.969 176.268,679.969 176.268,752.336 222.245,706.645 
	268.222,752.336 268.222,679.969 340.589,679.969 "/>
<polygon style="fill:#1A1A1A;" points="2079.191,220.108 2009.443,150.361 1961.64,198.164 1913.836,150.361 1844.088,220.108 
	1891.892,267.912 1844.088,315.715 1913.836,385.463 1961.64,337.659 2009.443,385.463 2079.191,315.715 2031.387,267.912 "/>
<g>
	<polygon style="fill:#1A1A1A;" points="1263.475,996.421 1381.859,1114.88 1145.091,1114.88 	"/>
	<polygon style="fill:#1A1A1A;" points="1263.785,877.848 1382.282,996.421 1145.287,996.421 	"/>
</g>
<g>
	<g>
		<path style="fill:#1A1A1A;" d="M1613.067,386.428h0.469v0c0-65.424-53.036-118.46-118.46-118.46h-0.469v0
			C1494.607,333.392,1547.643,386.428,1613.067,386.428z"/>
		<path style="fill:#1A1A1A;" d="M1614.119,386.428h-0.469v0c0-65.424,53.036-118.46,118.46-118.46h0.469v0
			C1732.579,333.392,1679.542,386.428,1614.119,386.428z"/>
	</g>
	<path style="fill:#1A1A1A;" d="M1613.832,267.969h-0.47l0,0c0-65.486,53.087-118.573,118.573-118.573h0.47v0
		C1732.405,214.882,1679.318,267.969,1613.832,267.969z"/>
	<path style="fill:#1A1A1A;" d="M1612.779,267.969h0.47l0,0c0-65.486-53.087-118.573-118.573-118.573h-0.47v0
		C1494.205,214.882,1547.292,267.969,1612.779,267.969z"/>
</g>
<path style="fill:#1A1A1A;" d="M1672.023,601.383c-17.717,0-33.655,8.961-44.72,17.382c8.42-11.065,17.382-27.003,17.382-44.72
	c0-33.416-31.879-60.505-31.879-60.505s-31.879,27.089-31.879,60.505c0,17.717,8.962,33.655,17.382,44.72
	c-11.066-8.42-27.003-17.382-44.721-17.382c-33.416,0-60.505,31.879-60.505,31.879s27.089,31.879,60.505,31.879
	c17.717,0,33.655-8.962,44.721-17.382c-8.42,11.065-17.382,27.003-17.382,44.72c0,33.416,31.879,60.505,31.879,60.505
	s31.879-27.089,31.879-60.505c0-17.717-8.961-33.655-17.382-44.72c11.065,8.42,27.003,17.382,44.72,17.382
	c33.416,0,60.505-31.879,60.505-31.879S1705.439,601.383,1672.023,601.383z"/>
<g>
	<path style="fill:#1A1A1A;" d="M1672.526,996.364L1672.526,996.364c-32.78,0-59.354-26.574-59.354-59.354l0,0
		c0-32.78,26.574-59.354,59.354-59.354l0,0c32.78,0,59.354,26.573,59.354,59.354l0,0
		C1731.88,969.79,1705.307,996.364,1672.526,996.364z"/>
	<path style="fill:#1A1A1A;" d="M1553.819,996.364L1553.819,996.364c-32.78,0-59.354-26.574-59.354-59.354l0,0
		c0-32.78,26.574-59.354,59.353-59.354h0c32.78,0,59.353,26.573,59.353,59.354l0,0
		C1613.172,969.79,1586.599,996.364,1553.819,996.364z"/>
	<path style="fill:#1A1A1A;" d="M1672.526,1115.071L1672.526,1115.071c-32.781,0-59.354-26.573-59.354-59.354l0,0
		c0-32.78,26.573-59.354,59.353-59.354h0c32.78,0,59.353,26.574,59.353,59.354l0,0
		C1731.88,1088.498,1705.306,1115.071,1672.526,1115.071z"/>
	<path style="fill:#1A1A1A;" d="M1553.819,1115.071L1553.819,1115.071c-32.78,0-59.354-26.573-59.354-59.354l0,0
		c0-32.78,26.573-59.354,59.354-59.354l0,0c32.78,0,59.354,26.574,59.354,59.354l0,0
		C1613.173,1088.498,1586.599,1115.071,1553.819,1115.071z"/>
</g>
<path style="fill:#1A1A1A;" d="M687.721,1477.986h-1.038c0-130.537-105.821-236.358-236.358-236.358v-1.038h237.397V1477.986z"/>
<path style="fill:#1A1A1A;" d="M1382.049,1240.589c-4.027,61.889-55.492,110.843-118.399,110.843
	c-62.907,0-114.372-48.954-118.399-110.843h-0.263v237.397h237.397v-237.397H1382.049z"/>
<path style="fill:#1A1A1A;" d="M980.801,1478.739H851.086c0-30.151-24.442-54.594-54.594-54.594V1294.43
	c30.151,0,54.594-24.442,54.594-54.594h129.715c0,30.151,24.442,54.594,54.594,54.594v129.715
	C1005.244,1424.145,980.801,1448.588,980.801,1478.739z"/>
<path style="fill:#1A1A1A;" d="M2026.245,1609.126c-12.195,0-23.441,8.971-32.478,24.084c-9.037-15.113-20.284-24.084-32.478-24.084
	c-12.435,0-23.879,9.343-33.005,25.001c-9.126-15.658-20.57-25.001-33.005-25.001c-29.806,0-53.968,53.538-53.968,119.58
	s24.162,119.58,53.968,119.58c12.435,0,23.879-9.343,33.005-25.001c9.126,15.658,20.569,25.001,33.005,25.001
	c12.195,0,23.442-8.971,32.478-24.084c9.037,15.113,20.283,24.084,32.478,24.084c29.806,0,53.968-53.538,53.968-119.58
	S2056.051,1609.126,2026.245,1609.126z"/>
<path style="fill:#1A1A1A;" d="M2655.412,515.294c-65.555,0-118.698,53.143-118.698,118.698s53.143,118.698,118.698,118.698
	c65.555,0,118.698-53.143,118.698-118.698S2720.967,515.294,2655.412,515.294z M2655.412,680.613
	c-25.748,0-46.62-20.873-46.62-46.62s20.873-46.62,46.62-46.62c25.748,0,46.62,20.873,46.62,46.62
	S2681.159,680.613,2655.412,680.613z"/>
<g>
	<path style="fill:#1A1A1A;" d="M2655.78,1478.119v-118.831h-118.831C2536.948,1424.916,2590.151,1478.119,2655.78,1478.119z"/>
	<path style="fill:#1A1A1A;" d="M2655.78,1240.457v118.831h118.831C2774.61,1293.659,2721.408,1240.457,2655.78,1240.457z"/>
</g>
<polygon style="fill:#1A1A1A;" points="2655.999,268.303 2537.198,149.502 2537.198,386.321 2774.8,386.321 2774.8,149.502 "/>
<g>
	
		<rect x="2553.929" y="894.87" transform="matrix(0.7071 -0.7071 0.7071 0.7071 97.7847 2110.1899)" style="fill:#1A1A1A;" width="84.376" height="84.376"/>
	
		<rect x="2553.929" y="1014.196" transform="matrix(0.7071 -0.7071 0.7071 0.7071 13.408 2145.1372)" style="fill:#1A1A1A;" width="84.376" height="84.376"/>
	
		<rect x="2673.254" y="894.87" transform="matrix(0.7071 -0.7071 0.7071 0.7071 132.7354 2194.5679)" style="fill:#1A1A1A;" width="84.376" height="84.376"/>
	
		<rect x="2673.254" y="1014.196" transform="matrix(0.7071 -0.7071 0.7071 0.7071 48.3585 2229.5151)" style="fill:#1A1A1A;" width="84.376" height="84.376"/>
</g>
<path style="fill:#1A1A1A;" d="M3003.584,1043.041c-25.748,0-46.62-20.873-46.62-46.62c0-25.748,20.872-46.62,46.62-46.62
	s46.62,20.873,46.62,46.62h72.078c0-65.555-53.143-118.698-118.698-118.698c-65.555,0-118.698,53.143-118.698,118.698
	s53.143,118.698,118.698,118.698V1043.041z"/>
<path style="fill:#1A1A1A;" d="M3077.99,633.992l44.082-31.985l-71.59-51.945l0.504-0.365l-47.265-34.295l-0.504,0.366l-0.504-0.366
	l-47.265,34.295l0.504,0.365l-71.59,51.945l44.082,31.985l-44.082,31.985l71.59,51.945l-0.504,0.365l47.265,34.295l0.504-0.366
	l0.504,0.366l47.265-34.295l-0.504-0.365l71.59-51.945L3077.99,633.992z M3003.216,683.628l-68.407-49.635l68.407-49.635
	l68.407,49.635L3003.216,683.628z"/>
<polygon style="fill:#1A1A1A;" points="3042.492,1398.524 3042.492,1319.391 2963.36,1319.391 2963.36,1240.259 2884.227,1240.259 
	2884.227,1477.656 2949.89,1477.656 2963.36,1477.656 3121.624,1477.656 3121.624,1398.524 "/>
<path style="fill:#1A1A1A;" d="M3018.482,267.912c180.344,107.708,93.029,195.023-14.679,14.679
	c-107.708,180.344-195.022,93.029-14.679-14.679c-180.344-107.708-93.029-195.022,14.679-14.679
	C3111.511,72.889,3198.826,160.204,3018.482,267.912z"/>
<polygon style="fill:#1A1A1A;" points="553.139,1012.084 553.139,877.654 450.526,877.654 450.526,1115.074 450.967,1115.074 
	553.139,1115.074 687.519,1115.074 687.519,1012.084 "/>
<g>
	<path style="fill:#1A1A1A;" d="M340.545,1660.221v-50.104c-65.495,0-118.59,53.095-118.59,118.59
		c0,65.495,53.095,118.59,118.59,118.59v-50.104c-37.824,0-68.486-30.662-68.486-68.486S302.721,1660.221,340.545,1660.221z"/>
	<path style="fill:#1A1A1A;" d="M103.365,1610.117v50.104c37.824,0,68.486,30.662,68.486,68.486s-30.662,68.486-68.486,68.486
		v50.104c65.495,0,118.59-53.094,118.59-118.59C221.955,1663.212,168.86,1610.117,103.365,1610.117z"/>
</g>
<path style="fill:#1A1A1A;" d="M2655.121,1847.727L2655.121,1847.727c-65.419,0-118.451-53.032-118.451-118.451v-0.57v-119.021
	h17.957c50.503,0,92.417,36.74,100.493,84.948c8.076-48.208,49.991-84.948,100.494-84.948h17.957v119.021v0.57
	C2773.572,1794.695,2720.54,1847.727,2655.121,1847.727z"/>
<path style="fill:#1A1A1A;" d="M1137.027,1602.706v252.002h23.521v-102.48c0-56.598,45.882-102.48,102.48-102.48h0
	c56.598,0,102.48,45.882,102.48,102.48v102.48h23.521v-252.002H1137.027z"/>
<path style="fill:#1A1A1A;" d="M584.327,1602.706c0,78.404-63.559,141.963-141.963,141.963v110.038h252.002v-252.002H584.327z"/>
<path style="fill:#1A1A1A;" d="M1612.514,1606.296c-67.606,0-122.411,54.805-122.411,122.411s54.805,122.411,122.411,122.411
	c67.606,0,122.411-54.805,122.411-122.411S1680.12,1606.296,1612.514,1606.296z M1612.514,1849.972l-121.266-121.266
	l121.266-121.266l121.266,121.266L1612.514,1849.972z"/>
<g>
	<polygon style="fill:#1A1A1A;" points="789.284,1854.885 915.285,1854.885 789.284,1602.529 	"/>
	<polygon style="fill:#1A1A1A;" points="915.285,1602.529 915.285,1854.885 1041.286,1854.885 	"/>
</g>
<path style="fill:#1A1A1A;" d="M3370.022,515.402h-0.415v49.122h-34.147v-49.122h-0.415c-56.008,0-101.411,52.878-101.411,118.106
	v0.967c0,65.229,45.403,118.107,101.411,118.107h0.415v-49.123h34.147v49.123h0.415c56.008,0,101.411-52.878,101.411-118.107v-0.967
	C3471.433,568.28,3426.03,515.402,3370.022,515.402z"/>
<g>
	<path style="fill:#1A1A1A;" d="M2427.603,1609.054H2188.15v239.307h0.002C2188.231,1716.181,2295.406,1609.054,2427.603,1609.054z"
		/>
	<path style="fill:#1A1A1A;" d="M2196.114,1848.36h231.489v-239.289C2427.594,1738.643,2324.666,1844.158,2196.114,1848.36z"/>
</g>
<path style="fill:#1A1A1A;" d="M3232.807,387.638L3232.807,387.638L3232.807,387.638c0-132.246,107.206-239.453,239.452-239.453h0v0
	C3472.259,280.431,3365.053,387.638,3232.807,387.638z"/>
<path style="fill:#1A1A1A;" d="M2081.146,1359.288c-70.824,27.008-92.718,48.902-119.726,119.726
	c-27.008-70.824-48.902-92.719-119.726-119.726c70.824-27.008,92.718-48.902,119.726-119.726
	C1988.428,1310.386,2010.322,1332.28,2081.146,1359.288z"/>
<g>
	
		<ellipse transform="matrix(0.1602 -0.9871 0.9871 0.1602 1885.361 4100.6235)" style="fill:#1A1A1A;" cx="3352.533" cy="942.324" rx="63.161" ry="63.161"/>
	<g>
		<circle style="fill:#1A1A1A;" cx="3289.372" cy="1050.518" r="63.161"/>
		<circle style="fill:#1A1A1A;" cx="3415.694" cy="1050.518" r="63.161"/>
	</g>
</g>
<g>
	<polygon style="fill:#1A1A1A;" points="3242.184,1728.355 3359.979,1610.56 3242.057,1610.56 3242.057,1846.853 3360.682,1846.853 
			"/>
	<polygon style="fill:#1A1A1A;" points="3361.596,1610.56 3479.391,1728.355 3360.893,1846.853 3480.376,1846.853 3480.376,1610.56 
			"/>
</g>
</svg>
